<?xml version="1.0" encoding="utf-8"?>
<!-- Generator: Adobe Illustrator 27.0.1, SVG Export Plug-In . SVG Version: 6.00 Build 0)  -->
<svg version="1.1" id="Layer_1" xmlns="http://www.w3.org/2000/svg" xmlns:xlink="http://www.w3.org/1999/xlink" x="0px" y="0px"
	 viewBox="0 0 800 800" style="enable-background:new 0 0 800 800;" xml:space="preserve">
<style type="text/css">
	.st0{clip-path:url(#SVGID_00000167382669002584918310000015114997610626605955_);fill:#EAE487;}
	.st1{clip-path:url(#SVGID_00000167382669002584918310000015114997610626605955_);fill:#E8C189;}
	.st2{clip-path:url(#SVGID_00000167382669002584918310000015114997610626605955_);fill:#E28888;}
	.st3{clip-path:url(#SVGID_00000167382669002584918310000015114997610626605955_);fill:#94AFD6;}
	.st4{clip-path:url(#SVGID_00000167382669002584918310000015114997610626605955_);fill:none;}
</style>
<g>
	<defs>
		<polygon id="SVGID_1_" points="285.5,652.4 775.6,657 400,-130.2 131.7,386.5 		"/>
	</defs>
	<clipPath id="SVGID_00000049907600343349847300000017172122005683110559_">
		<use xlink:href="#SVGID_1_"  style="overflow:visible;"/>
	</clipPath>
	<path style="clip-path:url(#SVGID_00000049907600343349847300000017172122005683110559_);fill:#EAE487;" d="M466.5,217.7L719.3,649
		l0-0.1c0,0-500,3.5-500,3.5L466.5,217.7 M472.3,325L319.6,593.6c0,0,309-2.1,309-2.1l0,0.1L472.3,325"/>
	<path style="clip-path:url(#SVGID_00000049907600343349847300000017172122005683110559_);fill:#E8C189;" d="M432.5,159.7L685.3,591
		l0-0.1c0,0-500,3.5-500,3.5L432.5,159.7 M438.3,266.9L285.5,535.5c0,0,309-2.1,309-2.1l0,0.1L438.3,266.9"/>
	<path style="clip-path:url(#SVGID_00000049907600343349847300000017172122005683110559_);fill:#E28888;" d="M398.5,101.8
		l252.8,431.3l0-0.1c0,0-500,3.5-500,3.5L398.5,101.8 M404.4,209L251.6,477.6c0,0,309-2.1,309-2.1l0,0.1L404.4,209"/>
	<path style="clip-path:url(#SVGID_00000049907600343349847300000017172122005683110559_);fill:#94AFD6;" d="M364.8,44.2
		l252.8,431.3l0-0.1c0,0-500,3.5-500,3.5L364.8,44.2 M370.6,151.5L217.8,420.1c0,0,309-2.1,309-2.1l0,0.1L370.6,151.5"/>
	
		<line style="clip-path:url(#SVGID_00000049907600343349847300000017172122005683110559_);fill:none;" x1="184.5" y1="477.7" x2="150.8" y2="420.3"/>
	
		<line style="clip-path:url(#SVGID_00000049907600343349847300000017172122005683110559_);fill:none;" x1="218.5" y1="535.7" x2="184.5" y2="477.7"/>
	
		<line style="clip-path:url(#SVGID_00000049907600343349847300000017172122005683110559_);fill:none;" x1="252.3" y1="593.5" x2="218.5" y2="535.7"/>
	<polyline style="clip-path:url(#SVGID_00000049907600343349847300000017172122005683110559_);fill:none;" points="150.8,420.3 
		-67.6,47.8 358.5,-202 840.1,633 419.9,879.3 252.3,593.5 	"/>
</g>
</svg>
